<?xml version="1.0" encoding="utf-8"?>
<!-- Generator: Adobe Illustrator 22.1.0, SVG Export Plug-In . SVG Version: 6.00 Build 0)  -->
<svg version="1.1" id="Capa_1" xmlns="http://www.w3.org/2000/svg" xmlns:xlink="http://www.w3.org/1999/xlink" x="0px" y="0px"
	 viewBox="0 0 75.2 75.2" style="enable-background:new 0 0 75.2 75.2;" xml:space="preserve">
<g>
	<polygon fill="#32C8F2" points="29.7,56.7 24.8,63 52.7,59.4 46.4,54.6 	"/>
	<polygon fill="#AAAAAA" points="4.8,17.9 9.7,56 57.2,49.9 16.1,16.5 	"/>
	<g>
		<path fill="#AAAAAA" d="M22.8,17.6l14.8,12l0.8-1l-3-2.4l1.4-1.7l7.5-4.8l3.3,2.7L42.3,29l0.7,0.6l-1.4,1.7L41,30.7l-0.8,1l1.8,1.5
			c0-0.4,0.1-0.8,0.2-1.1c0.2-0.4,0.5-1,1.1-1.7l2.8-3.5c0.7-0.9,1.4-1.6,1.9-1.9c0.5-0.3,1.1-0.4,1.8-0.3c0.7,0.1,1.4,0.4,2.1,1
			c0.6,0.4,1,0.9,1.2,1.5c0.3,0.5,0.4,1,0.4,1.5c0,0.5-0.1,0.9-0.3,1.3c-0.2,0.4-0.6,1-1.2,1.8L49.3,35c-0.6,0.8-1.1,1.3-1.5,1.6
			c-0.3,0.2-0.7,0.4-1.1,0.5l4.1,3.3l0.8-1l-3-2.4l1.4-1.7l7.5-4.8l3.3,2.7l-5.3,6.6l0.7,0.6l-1.4,1.7l-0.7-0.6l-0.8,1L64,51
			l6.3-0.8l-4.9-38.1L22.8,17.6z"/>
		<path fill="#AAAAAA" d="M45.4,34.6c0.2-0.1,0.5-0.4,0.9-0.9l4-5c0.4-0.5,0.7-0.9,0.7-1.1c0.1-0.2,0-0.3-0.2-0.5
			c-0.2-0.2-0.4-0.2-0.5-0.1c-0.2,0.1-0.5,0.4-0.9,0.9l-4,4.9c-0.5,0.6-0.7,1-0.8,1.1c0,0.2,0,0.3,0.2,0.5
			C45,34.7,45.2,34.7,45.4,34.6z"/>
		<polygon fill="#AAAAAA" points="38.7,26.1 39.8,27 43.3,22.7 		"/>
		<polygon fill="#AAAAAA" points="51.9,36.7 53,37.6 56.5,33.3 		"/>
	</g>
</g>
</svg>
